<svg width="427" height="146" viewBox="0 0 427 146" fill="none" xmlns="http://www.w3.org/2000/svg">
<path d="M75.904 9.26396C76.832 9.56796 77.568 10.08 78.112 10.8C78.656 11.504 78.928 12.384 78.928 13.44C78.928 14.896 78.368 16.024 77.248 16.824C76.128 17.608 74.496 18 72.352 18H64V1.19996H71.872C73.856 1.19996 75.384 1.59196 76.456 2.37596C77.528 3.14396 78.064 4.20796 78.064 5.56796C78.064 6.39996 77.872 7.13596 77.488 7.77596C77.104 8.41596 76.576 8.91196 75.904 9.26396ZM67.12 3.64796V8.27996H71.536C72.624 8.27996 73.456 8.08796 74.032 7.70396C74.624 7.30396 74.92 6.72796 74.92 5.97596C74.92 5.20796 74.624 4.63196 74.032 4.24796C73.456 3.84796 72.624 3.64796 71.536 3.64796H67.12ZM72.16 15.552C74.576 15.552 75.784 14.744 75.784 13.128C75.784 11.512 74.576 10.704 72.16 10.704H67.12V15.552H72.16Z" fill="#4D4E53"/>
<path d="M82.2578 1.19996H85.3778V15.36H94.1618V18H82.2578V1.19996Z" fill="#4D4E53"/>
<path d="M109.225 15.384V18H96.625V1.19996H108.889V3.81596H99.745V8.18396H107.857V10.752H99.745V15.384H109.225Z" fill="#4D4E53"/>
<path d="M127.631 1.19996V18H125.063L115.799 6.62396V18H112.703V1.19996H115.271L124.535 12.576V1.19996H127.631Z" fill="#4D4E53"/>
<path d="M132.133 1.19996H139.477C141.269 1.19996 142.861 1.55196 144.253 2.25596C145.645 2.94396 146.725 3.92796 147.493 5.20796C148.261 6.47196 148.645 7.93596 148.645 9.59996C148.645 11.264 148.261 12.736 147.493 14.016C146.725 15.28 145.645 16.264 144.253 16.968C142.861 17.656 141.269 18 139.477 18H132.133V1.19996ZM139.333 15.36C140.565 15.36 141.645 15.128 142.573 14.664C143.517 14.184 144.237 13.512 144.733 12.648C145.245 11.768 145.501 10.752 145.501 9.59996C145.501 8.44796 145.245 7.43996 144.733 6.57596C144.237 5.69596 143.517 5.02396 142.573 4.55996C141.645 4.07996 140.565 3.83996 139.333 3.83996H135.253V15.36H139.333Z" fill="#4D4E53"/>
<path d="M164.561 15.384V18H151.961V1.19996H164.225V3.81596H155.081V8.18396H163.193V10.752H155.081V15.384H164.561Z" fill="#4D4E53"/>
<path d="M179.031 18L175.599 13.08C175.455 13.096 175.239 13.104 174.951 13.104H171.159V18H168.039V1.19996H174.951C176.407 1.19996 177.671 1.43996 178.743 1.91996C179.831 2.39996 180.663 3.08796 181.239 3.98396C181.815 4.87996 182.103 5.94396 182.103 7.17596C182.103 8.43996 181.791 9.52796 181.167 10.44C180.559 11.352 179.679 12.032 178.527 12.48L182.391 18H179.031ZM178.959 7.17596C178.959 6.10396 178.607 5.27996 177.903 4.70396C177.199 4.12796 176.167 3.83996 174.807 3.83996H171.159V10.536H174.807C176.167 10.536 177.199 10.248 177.903 9.67196C178.607 9.07996 178.959 8.24796 178.959 7.17596Z" fill="#4D4E53"/>
<path d="M200.003 18.24C198.307 18.24 196.771 17.872 195.395 17.136C194.035 16.384 192.963 15.352 192.179 14.04C191.411 12.728 191.027 11.248 191.027 9.59996C191.027 7.95196 191.419 6.47196 192.203 5.15996C192.987 3.84796 194.059 2.82396 195.419 2.08796C196.795 1.33596 198.331 0.959961 200.027 0.959961C201.403 0.959961 202.659 1.19996 203.795 1.67996C204.931 2.15996 205.891 2.85596 206.675 3.76796L204.659 5.66396C203.443 4.35196 201.947 3.69596 200.171 3.69596C199.019 3.69596 197.987 3.95196 197.075 4.46396C196.163 4.95996 195.451 5.65596 194.939 6.55196C194.427 7.44796 194.171 8.46396 194.171 9.59996C194.171 10.736 194.427 11.752 194.939 12.648C195.451 13.544 196.163 14.248 197.075 14.76C197.987 15.256 199.019 15.504 200.171 15.504C201.947 15.504 203.443 14.84 204.659 13.512L206.675 15.432C205.891 16.344 204.923 17.04 203.771 17.52C202.635 18 201.379 18.24 200.003 18.24Z" fill="#4D4E53"/>
<path d="M217.161 18.24C215.449 18.24 213.905 17.872 212.529 17.136C211.153 16.384 210.072 15.352 209.288 14.04C208.504 12.712 208.113 11.232 208.113 9.59996C208.113 7.96796 208.504 6.49596 209.288 5.18396C210.072 3.85596 211.153 2.82396 212.529 2.08796C213.905 1.33596 215.449 0.959961 217.161 0.959961C218.873 0.959961 220.417 1.33596 221.793 2.08796C223.169 2.82396 224.249 3.84796 225.033 5.15996C225.817 6.47196 226.209 7.95196 226.209 9.59996C226.209 11.248 225.817 12.728 225.033 14.04C224.249 15.352 223.169 16.384 221.793 17.136C220.417 17.872 218.873 18.24 217.161 18.24ZM217.161 15.504C218.281 15.504 219.289 15.256 220.185 14.76C221.081 14.248 221.785 13.544 222.297 12.648C222.809 11.736 223.064 10.72 223.064 9.59996C223.064 8.47996 222.809 7.47196 222.297 6.57596C221.785 5.66396 221.081 4.95996 220.185 4.46396C219.289 3.95196 218.281 3.69596 217.161 3.69596C216.041 3.69596 215.033 3.95196 214.137 4.46396C213.241 4.95996 212.537 5.66396 212.025 6.57596C211.513 7.47196 211.257 8.47996 211.257 9.59996C211.257 10.72 211.513 11.736 212.025 12.648C212.537 13.544 213.241 14.248 214.137 14.76C215.033 15.256 216.041 15.504 217.161 15.504Z" fill="#4D4E53"/>
<path d="M244.444 1.19996V18H241.876L232.612 6.62396V18H229.516V1.19996H232.084L241.348 12.576V1.19996H244.444Z" fill="#4D4E53"/>
<path d="M252.065 3.81596V8.92796H260.177V11.568H252.065V18H248.945V1.19996H261.209V3.81596H252.065Z" fill="#4D4E53"/>
<path d="M276.827 15.384V18H264.227V1.19996H276.491V3.81596H267.347V8.18396H275.459V10.752H267.347V15.384H276.827Z" fill="#4D4E53"/>
<path d="M291.297 18L287.865 13.08C287.721 13.096 287.505 13.104 287.217 13.104H283.425V18H280.305V1.19996H287.217C288.673 1.19996 289.937 1.43996 291.009 1.91996C292.097 2.39996 292.929 3.08796 293.505 3.98396C294.081 4.87996 294.369 5.94396 294.369 7.17596C294.369 8.43996 294.057 9.52796 293.433 10.44C292.825 11.352 291.945 12.032 290.793 12.48L294.657 18H291.297ZM291.225 7.17596C291.225 6.10396 290.873 5.27996 290.169 4.70396C289.465 4.12796 288.433 3.83996 287.073 3.83996H283.425V10.536H287.073C288.433 10.536 289.465 10.248 290.169 9.67196C290.873 9.07996 291.225 8.24796 291.225 7.17596Z" fill="#4D4E53"/>
<path d="M310.459 15.384V18H297.859V1.19996H310.123V3.81596H300.979V8.18396H309.091V10.752H300.979V15.384H310.459Z" fill="#4D4E53"/>
<path d="M328.865 1.19996V18H326.297L317.034 6.62396V18H313.938V1.19996H316.506L325.77 12.576V1.19996H328.865Z" fill="#4D4E53"/>
<path d="M341.143 18.24C339.447 18.24 337.911 17.872 336.535 17.136C335.175 16.384 334.103 15.352 333.319 14.04C332.551 12.728 332.167 11.248 332.167 9.59996C332.167 7.95196 332.559 6.47196 333.343 5.15996C334.127 3.84796 335.199 2.82396 336.559 2.08796C337.935 1.33596 339.471 0.959961 341.167 0.959961C342.543 0.959961 343.799 1.19996 344.935 1.67996C346.071 2.15996 347.031 2.85596 347.815 3.76796L345.799 5.66396C344.583 4.35196 343.087 3.69596 341.311 3.69596C340.159 3.69596 339.127 3.95196 338.215 4.46396C337.303 4.95996 336.591 5.65596 336.079 6.55196C335.567 7.44796 335.311 8.46396 335.311 9.59996C335.311 10.736 335.567 11.752 336.079 12.648C336.591 13.544 337.303 14.248 338.215 14.76C339.127 15.256 340.159 15.504 341.311 15.504C343.087 15.504 344.583 14.84 345.799 13.512L347.815 15.432C347.031 16.344 346.063 17.04 344.911 17.52C343.775 18 342.519 18.24 341.143 18.24Z" fill="#4D4E53"/>
<path d="M363.405 15.384V18H350.805V1.19996H363.069V3.81596H353.925V8.18396H362.037V10.752H353.925V15.384H363.405Z" fill="#4D4E53"/>
<path d="M263.767 41C236.814 41 214.565 61.5896 211.784 87.9279C213.787 87.3585 215.903 87.0472 218.099 87.0472C230.942 87.0472 241.216 97.4294 241.216 110.325C241.216 119.785 235.678 127.806 227.663 131.417C237.057 140.44 249.773 146 263.767 146C292.594 146 316.048 122.449 316.048 93.501C316.048 64.5518 292.594 41 263.767 41Z" fill="#4D4E53"/>
<path d="M204.696 91.3478C198.837 95.5589 195.048 102.473 195.048 110.325C195.048 123.221 205.257 133.473 218.099 133.473C218.744 133.473 219.379 133.44 220.009 133.388C210.465 122.84 204.642 108.841 204.642 93.5C204.642 92.7783 204.671 92.0635 204.696 91.3478Z" fill="#4D4E53"/>
<path fill-rule="evenodd" clip-rule="evenodd" d="M184.985 113.909C185.787 121.569 189.133 128.437 194.178 133.645C190.613 136.69 186.59 139.182 182.109 141.12C175.005 144.192 167.085 145.728 158.349 145.728C148.077 145.728 138.765 143.52 130.413 139.104C122.157 134.592 115.629 128.4 110.829 120.528C106.125 112.56 103.773 103.584 103.773 93.5997C103.773 83.6157 106.125 74.6877 110.829 66.8157C115.629 58.8477 122.157 52.6557 130.413 48.2397C138.765 43.7277 148.125 41.4717 158.493 41.4717C167.229 41.4717 175.101 43.0077 182.109 46.0797C189.213 49.1517 195.165 53.5677 199.965 59.3277L184.989 73.1517C178.173 65.2797 169.725 61.3437 159.645 61.3437C153.405 61.3437 147.837 62.7357 142.941 65.5197C138.045 68.2077 134.205 71.9997 131.421 76.8957C128.733 81.7917 127.389 87.3597 127.389 93.5997C127.389 99.8397 128.733 105.408 131.421 110.304C134.205 115.2 138.045 119.04 142.941 121.824C147.837 124.512 153.405 125.856 159.645 125.856C169.723 125.856 178.169 121.874 184.985 113.909ZM74.016 91.5837C79.776 93.4077 84.288 96.4797 87.552 100.8C90.816 105.024 92.448 110.256 92.448 116.496C92.448 125.328 88.992 132.144 82.08 136.944C75.264 141.648 65.28 144 52.128 144H0V43.1997H49.248C61.536 43.1997 70.944 45.5517 77.472 50.2557C84.096 54.9597 87.408 61.3437 87.408 69.4077C87.408 74.3037 86.208 78.6717 83.808 82.5117C81.504 86.3517 78.24 89.3757 74.016 91.5837ZM23.184 60.7677V84.5277H46.368C52.128 84.5277 56.496 83.5197 59.472 81.5037C62.448 79.4877 63.936 76.5117 63.936 72.5757C63.936 68.6397 62.448 65.7117 59.472 63.7917C56.496 61.7757 52.128 60.7677 46.368 60.7677H23.184ZM50.4 126.432C56.544 126.432 61.152 125.424 64.224 123.408C67.392 121.392 68.976 118.272 68.976 114.048C68.976 105.696 62.784 101.52 50.4 101.52H23.184V126.432H50.4Z" fill="#4D4E53"/>
<path d="M426.448 42.8643V143.664H407.296L357.04 82.4643V143.664H334V42.8643H353.296L403.408 104.064V42.8643H426.448Z" fill="#4D4E53"/>
</svg>
